<svg xmlns="http://www.w3.org/2000/svg" width="1400" height="800" viewBox="0 0 1400 800">
<rect x="0" y="0" width="1400" height="800" fill="white"/>
<text x="700" y="45" font-family="Arial, Helvetica, sans-serif" font-size="24" text-anchor="middle" font-weight="bold" fill="#111">Who’s Warming Fastest? Elko vs Reno vs Las Vegas (1975–2025)</text>
<text x="700" y="70" font-family="Arial, Helvetica, sans-serif" font-size="14" text-anchor="middle" fill="#444">Temperature anomalies relative to 1975–2000 baseline. Filter: months_ok ≥ 10. (No trendlines)</text>
<rect x="110" y="90" width="625.00" height="590" fill="#e0e0e0" opacity="0.06"/>
<rect x="735.00" y="90" width="625.00" height="590" fill="#4285F4" opacity="0.05"/>
<rect x="110" y="90" width="625.00" height="590" fill="none" stroke="#cfcfcf" stroke-width="1" opacity="0.85"/>
<rect x="735.00" y="90" width="625.00" height="590" fill="none" stroke="#bcd2ff" stroke-width="1" opacity="0.9"/>
<text x="422.50" y="108.00" font-family="Arial, Helvetica, sans-serif" font-size="12" text-anchor="middle" fill="#333">1975–2000</text>
<text x="1047.50" y="108.00" font-family="Arial, Helvetica, sans-serif" font-size="12" text-anchor="middle" fill="#333">2001–2025</text>
<line x1="110" y1="680" x2="1360" y2="680" stroke="#555" stroke-width="2"/>
<line x1="110" y1="680" x2="110" y2="90" stroke="#555" stroke-width="2"/>
<line x1="110" y1="680.00" x2="1360" y2="680.00" stroke="#d0d0d0" stroke-width="1" opacity="0.45"/>
<text x="100" y="684.00" font-family="Arial, Helvetica, sans-serif" font-size="12" text-anchor="end" fill="#222">-5.5</text>
<line x1="110" y1="595.71" x2="1360" y2="595.71" stroke="#d0d0d0" stroke-width="1" opacity="0.45"/>
<text x="100" y="599.71" font-family="Arial, Helvetica, sans-serif" font-size="12" text-anchor="end" fill="#222">-3.8</text>
<line x1="110" y1="511.43" x2="1360" y2="511.43" stroke="#d0d0d0" stroke-width="1" opacity="0.45"/>
<text x="100" y="515.43" font-family="Arial, Helvetica, sans-serif" font-size="12" text-anchor="end" fill="#222">-2.1</text>
<line x1="110" y1="427.14" x2="1360" y2="427.14" stroke="#d0d0d0" stroke-width="1" opacity="0.45"/>
<text x="100" y="431.14" font-family="Arial, Helvetica, sans-serif" font-size="12" text-anchor="end" fill="#222">-0.4</text>
<line x1="110" y1="342.86" x2="1360" y2="342.86" stroke="#d0d0d0" stroke-width="1" opacity="0.45"/>
<text x="100" y="346.86" font-family="Arial, Helvetica, sans-serif" font-size="12" text-anchor="end" fill="#222">1.4</text>
<line x1="110" y1="258.57" x2="1360" y2="258.57" stroke="#d0d0d0" stroke-width="1" opacity="0.45"/>
<text x="100" y="262.57" font-family="Arial, Helvetica, sans-serif" font-size="12" text-anchor="end" fill="#222">3.1</text>
<line x1="110" y1="174.29" x2="1360" y2="174.29" stroke="#d0d0d0" stroke-width="1" opacity="0.45"/>
<text x="100" y="178.29" font-family="Arial, Helvetica, sans-serif" font-size="12" text-anchor="end" fill="#222">4.8</text>
<line x1="110" y1="90.00" x2="1360" y2="90.00" stroke="#d0d0d0" stroke-width="1" opacity="0.45"/>
<text x="100" y="94.00" font-family="Arial, Helvetica, sans-serif" font-size="12" text-anchor="end" fill="#222">6.5</text>
<line x1="110.00" y1="680" x2="110.00" y2="90" stroke="#d0d0d0" stroke-width="1" opacity="0.45"/>
<text x="110.00" y="705" font-family="Arial, Helvetica, sans-serif" font-size="12" text-anchor="middle" fill="#222">1975</text>
<line x1="235.00" y1="680" x2="235.00" y2="90" stroke="#d0d0d0" stroke-width="1" opacity="0.45"/>
<text x="235.00" y="705" font-family="Arial, Helvetica, sans-serif" font-size="12" text-anchor="middle" fill="#222">1980</text>
<line x1="360.00" y1="680" x2="360.00" y2="90" stroke="#d0d0d0" stroke-width="1" opacity="0.45"/>
<text x="360.00" y="705" font-family="Arial, Helvetica, sans-serif" font-size="12" text-anchor="middle" fill="#222">1985</text>
<line x1="485.00" y1="680" x2="485.00" y2="90" stroke="#d0d0d0" stroke-width="1" opacity="0.45"/>
<text x="485.00" y="705" font-family="Arial, Helvetica, sans-serif" font-size="12" text-anchor="middle" fill="#222">1990</text>
<line x1="610.00" y1="680" x2="610.00" y2="90" stroke="#d0d0d0" stroke-width="1" opacity="0.45"/>
<text x="610.00" y="705" font-family="Arial, Helvetica, sans-serif" font-size="12" text-anchor="middle" fill="#222">1995</text>
<line x1="735.00" y1="680" x2="735.00" y2="90" stroke="#d0d0d0" stroke-width="1" opacity="0.45"/>
<text x="735.00" y="705" font-family="Arial, Helvetica, sans-serif" font-size="12" text-anchor="middle" fill="#222">2000</text>
<line x1="860.00" y1="680" x2="860.00" y2="90" stroke="#d0d0d0" stroke-width="1" opacity="0.45"/>
<text x="860.00" y="705" font-family="Arial, Helvetica, sans-serif" font-size="12" text-anchor="middle" fill="#222">2005</text>
<line x1="985.00" y1="680" x2="985.00" y2="90" stroke="#d0d0d0" stroke-width="1" opacity="0.45"/>
<text x="985.00" y="705" font-family="Arial, Helvetica, sans-serif" font-size="12" text-anchor="middle" fill="#222">2010</text>
<line x1="1110.00" y1="680" x2="1110.00" y2="90" stroke="#d0d0d0" stroke-width="1" opacity="0.45"/>
<text x="1110.00" y="705" font-family="Arial, Helvetica, sans-serif" font-size="12" text-anchor="middle" fill="#222">2015</text>
<line x1="1235.00" y1="680" x2="1235.00" y2="90" stroke="#d0d0d0" stroke-width="1" opacity="0.45"/>
<text x="1235.00" y="705" font-family="Arial, Helvetica, sans-serif" font-size="12" text-anchor="middle" fill="#222">2020</text>
<line x1="1360.00" y1="680" x2="1360.00" y2="90" stroke="#d0d0d0" stroke-width="1" opacity="0.45"/>
<text x="1360.00" y="705" font-family="Arial, Helvetica, sans-serif" font-size="12" text-anchor="middle" fill="#222">2025</text>
<text x="700" y="755" font-family="Arial, Helvetica, sans-serif" font-size="16" text-anchor="middle" fill="#111">Year</text>
<text x="30" y="400" font-family="Arial, Helvetica, sans-serif" font-size="16" text-anchor="middle" transform="rotate(-90 30 400)">Temperature anomaly (°F relative to 1975–2000)</text>
<polyline points="110.00,504.55 135.00,426.38 160.00,271.50 185.00,341.81 210.00,256.26 235.00,271.50 260.00,202.67 285.00,430.80 310.00,315.26 335.00,488.82 360.00,460.79 385.00,350.66 410.00,384.58 435.00,422.93 460.00,484.88 485.00,430.80 510.00,430.31 535.00,449.48 560.00,639.27 585.00,461.78 610.00,425.39 635.00,461.78 660.00,442.11 685.00,432.77 710.00,447.52 735.00,414.58 760.00,344.76 785.00,422.44 810.00,287.73 835.00,401.79 860.00,427.36 885.00,338.37 910.00,350.17 935.00,437.19 960.00,406.71 985.00,396.38 1010.00,389.50 1035.00,255.28 1060.00,389.50 1085.00,235.12 1110.00,227.74 1135.00,296.08 1160.00,276.91 1185.00,292.64 1210.00,355.58 1235.00,272.48 1260.00,243.97 1285.00,355.58 1310.00,377.21 1335.00,230.69 1360.00,187.43" fill="none" stroke="#4285F4" stroke-width="4" opacity="1.0" stroke-linejoin="round" stroke-linecap="round"/>
<circle cx="110.00" cy="504.55" r="3.5" fill="#4285F4" opacity="0.95"/>
<circle cx="235.00" cy="271.50" r="3.5" fill="#4285F4" opacity="0.95"/>
<circle cx="360.00" cy="460.79" r="3.5" fill="#4285F4" opacity="0.95"/>
<circle cx="485.00" cy="430.80" r="3.5" fill="#4285F4" opacity="0.95"/>
<circle cx="610.00" cy="425.39" r="3.5" fill="#4285F4" opacity="0.95"/>
<circle cx="735.00" cy="414.58" r="3.5" fill="#4285F4" opacity="0.95"/>
<circle cx="860.00" cy="427.36" r="3.5" fill="#4285F4" opacity="0.95"/>
<circle cx="985.00" cy="396.38" r="3.5" fill="#4285F4" opacity="0.95"/>
<circle cx="1110.00" cy="227.74" r="3.5" fill="#4285F4" opacity="0.95"/>
<circle cx="1235.00" cy="272.48" r="3.5" fill="#4285F4" opacity="0.95"/>
<circle cx="1360.00" cy="187.43" r="3.5" fill="#4285F4" opacity="0.95"/>
<polyline points="110.00,562.15 135.00,538.06 160.00,434.32 185.00,512.98 210.00,459.39 235.00,430.88 260.00,383.18 285.00,555.76 310.00,450.54 335.00,467.75 360.00,481.52 385.00,345.82 410.00,354.67 435.00,332.05 460.00,410.72 485.00,401.87 510.00,390.07 535.00,297.63 560.00,423.50 585.00,295.18 610.00,329.10 635.00,399.90 660.00,423.50 685.00,399.90 710.00,295.18 735.00,273.54 760.00,223.88 785.00,268.63 810.00,207.17 835.00,231.75 860.00,305.01 885.00,262.73 910.00,228.80 935.00,263.22 960.00,286.82 985.00,289.28 1010.00,318.28 1035.00,169.31 1060.00,278.46 1085.00,128.01 1110.00,164.88 1135.00,177.67 1160.00,200.78 1185.00,196.84 1210.00,266.66 1235.00,204.22 1260.00,190.94 1285.00,213.07 1310.00,298.62 1335.00,156.53 1360.00,170.29" fill="none" stroke="#0F9D58" stroke-width="4" opacity="1.0" stroke-linejoin="round" stroke-linecap="round"/>
<rect x="106.5" y="558.65" width="7" height="7" fill="#0F9D58" opacity="0.95"/>
<rect x="231.5" y="427.38" width="7" height="7" fill="#0F9D58" opacity="0.95"/>
<rect x="356.5" y="478.02" width="7" height="7" fill="#0F9D58" opacity="0.95"/>
<rect x="481.5" y="398.37" width="7" height="7" fill="#0F9D58" opacity="0.95"/>
<rect x="606.5" y="325.6" width="7" height="7" fill="#0F9D58" opacity="0.95"/>
<rect x="731.5" y="270.04" width="7" height="7" fill="#0F9D58" opacity="0.95"/>
<rect x="856.5" y="301.51" width="7" height="7" fill="#0F9D58" opacity="0.95"/>
<rect x="981.5" y="285.78" width="7" height="7" fill="#0F9D58" opacity="0.95"/>
<rect x="1106.5" y="161.38" width="7" height="7" fill="#0F9D58" opacity="0.95"/>
<rect x="1231.5" y="200.72" width="7" height="7" fill="#0F9D58" opacity="0.95"/>
<rect x="1356.5" y="166.79" width="7" height="7" fill="#0F9D58" opacity="0.95"/>
<polyline points="110.00,512.02 135.00,471.70 160.00,377.80 185.00,405.33 210.00,443.68 235.00,398.94 260.00,337.97 285.00,537.59 310.00,484.00 335.00,472.20 360.00,445.65 385.00,370.42 410.00,448.60 435.00,403.85 460.00,365.01 485.00,424.50 510.00,441.71 535.00,385.66 560.00,421.55 585.00,344.85 610.00,345.84 635.00,327.65 660.00,365.01 685.00,457.45 710.00,358.13 735.00,302.08 760.00,301.10 785.00,340.43 810.00,289.79 835.00,315.35 860.00,290.28 885.00,307.49 910.00,248.49 935.00,297.16 960.00,301.59 985.00,322.73 1010.00,358.13 1035.00,237.18 1060.00,299.62 1085.00,194.40 1110.00,205.71 1135.00,208.66 1160.00,179.16 1185.00,187.03 1210.00,319.29 1235.00,219.48 1260.00,218.99 1285.00,270.12 1310.00,332.56 1335.00,174.25 1360.00,204.73" fill="none" stroke="#DB4437" stroke-width="4" opacity="1.0" stroke-linejoin="round" stroke-linecap="round"/>
<polygon points="110.00,508.02 106,512.024 110.004,512.024" fill="#DB4437" opacity="0.95"/>
<polygon points="235.00,394.94 231,398.944 235.004,398.944" fill="#DB4437" opacity="0.95"/>
<polygon points="360.00,441.65 356,445.654 360.004,445.654" fill="#DB4437" opacity="0.95"/>
<polygon points="485.00,420.5 481,424.504 485.004,424.504" fill="#DB4437" opacity="0.95"/>
<polygon points="610.00,341.84 606,345.844 610.004,345.844" fill="#DB4437" opacity="0.95"/>
<polygon points="735.00,298.08 731,302.084 735.004,302.084" fill="#DB4437" opacity="0.95"/>
<polygon points="860.00,286.28 856,290.284 860.004,290.284" fill="#DB4437" opacity="0.95"/>
<polygon points="985.00,318.73 981,322.734 985.004,322.734" fill="#DB4437" opacity="0.95"/>
<polygon points="1110.00,201.71 1106,205.714 1110.004,205.714" fill="#DB4437" opacity="0.95"/>
<polygon points="1235.00,215.48 1231,219.484 1235.004,219.484" fill="#DB4437" opacity="0.95"/>
<polygon points="1360.00,200.73 1356,204.734 1360.004,204.734" fill="#DB4437" opacity="0.95"/>
<rect x="1108" y="578" width="240" height="90" fill="white" opacity="0.92" stroke="#cfcfcf"/>
<line x1="1124" y1="606" x2="1164" y2="606" stroke="#4285F4" stroke-width="5"/>
<circle cx="1144.00" cy="606.00" r="3.5" fill="#4285F4" opacity="0.95"/>
<text x="1178" y="611" font-family="Arial, Helvetica, sans-serif" font-size="14" text-anchor="start" fill="#111">Elko</text>
<line x1="1124" y1="632" x2="1164" y2="632" stroke="#0F9D58" stroke-width="5"/>
<rect x="1140.5" y="628.5" width="7" height="7" fill="#0F9D58" opacity="0.95"/>
<text x="1178" y="637" font-family="Arial, Helvetica, sans-serif" font-size="14" text-anchor="start" fill="#111">Reno</text>
<line x1="1124" y1="658" x2="1164" y2="658" stroke="#DB4437" stroke-width="5"/>
<polygon points="1144.00,654 1140,658.004 1144.004,658.004" fill="#DB4437" opacity="0.95"/>
<text x="1178" y="663" font-family="Arial, Helvetica, sans-serif" font-size="14" text-anchor="start" fill="#111">Las Vegas</text>
<text x="110" y="785" font-family="Arial, Helvetica, sans-serif" font-size="12" text-anchor="start" fill="#333">Anomaly(year) = annual_mean_temp(year) − mean(annual_mean_temp, 1975–2000) for that city.</text>
</svg>
